<svg width="35" height="35" viewBox="0 0 35 35" fill="none" xmlns="http://www.w3.org/2000/svg">
<g clip-path="url(#clip0_78_136)">
<path d="M33.2975 3.88467L33.2567 3.79325C33.251 3.78059 33.2419 3.77004 33.2356 3.75738C33.1934 3.66948 33.1456 3.58439 33.0886 3.50492C33.0626 3.46836 33.0288 3.43671 33 3.40155C32.9564 3.35021 32.9142 3.29747 32.8636 3.25035C32.8284 3.2173 32.7869 3.18776 32.7482 3.15682C32.6934 3.11252 32.6385 3.06892 32.5773 3.02883C32.5394 3.00492 32.4979 2.98312 32.4578 2.96062C32.4072 2.93179 32.3607 2.90014 32.3059 2.87412L32.3024 2.88115C31.7721 2.6301 31.0612 2.49859 30.1624 2.49859C28.1653 2.49859 25.2391 3.11955 21.9065 4.24191C21.7152 4.15331 21.5253 4.064 21.3319 3.97679C15.8861 1.52461 10.5513 0 7.40998 0C7.20182 0 7.0028 0.00703235 6.81434 0.0203938C5.49226 0.115331 4.65259 0.542897 4.31363 1.29466L4.31293 1.29747C4.31293 1.29817 4.31223 1.29888 4.31223 1.29888L4.27566 1.37975C2.41209 5.51547 2.36005 10.1997 3.99296 14.3305C3.60337 14.7799 3.31082 15.2046 3.11462 15.6048C1.2187 16.339 0.246826 17.2398 0.246826 18.2897V18.3826C0.246826 27.5457 7.70182 35.0007 16.8643 35.0007C26.0274 35.0007 33.4824 27.5457 33.4824 18.3826V18.2897C33.4824 18.0274 33.4135 17.7722 33.2897 17.5232C35.2159 13.23 35.2637 8.24824 33.2975 3.88467ZM21.0323 21.2904C19.6892 21.3805 18.2883 21.4283 16.865 21.4283C16.4029 21.4283 15.9437 21.4226 15.4873 21.4135C15.379 21.4114 15.2736 21.4065 15.166 21.4044C14.8143 21.3952 14.4634 21.3847 14.116 21.3699C14.0028 21.365 13.891 21.3587 13.7785 21.353C13.443 21.3369 13.1083 21.3193 12.7792 21.2975C12.6596 21.2897 12.5422 21.2806 12.4233 21.2722C12.1083 21.2497 11.7961 21.2257 11.488 21.1983C11.3579 21.1871 11.2292 21.1744 11.1013 21.1625C10.8164 21.135 10.5344 21.1062 10.2567 21.0753C10.1118 21.0591 9.96694 21.0422 9.82418 21.0246C9.57383 20.9944 9.3284 20.962 9.08508 20.9283C8.92685 20.9065 8.76863 20.8847 8.61392 20.8615C8.38818 20.8277 8.16736 20.7911 7.94866 20.7546C7.79465 20.7286 7.63923 20.7039 7.48804 20.6765C7.27355 20.6378 7.0668 20.5963 6.86005 20.5549C6.7412 20.5309 6.61884 20.5077 6.5028 20.4824C6.27074 20.2068 6.04992 19.9241 5.83895 19.635C5.76722 19.5373 5.70393 19.4346 5.63501 19.3347C5.49929 19.1385 5.36216 18.9437 5.23628 18.7419C5.22714 18.7279 5.2201 18.7131 5.21096 18.699C5.47116 18.7279 5.75105 18.7419 6.05203 18.7419H6.05273C6.47819 18.7419 6.94655 18.7117 7.44725 18.6575L7.45147 18.6589L7.61462 18.6399C7.64697 18.6364 7.68354 18.6287 7.71588 18.6252C8.07383 18.5809 8.44373 18.5267 8.83262 18.4571C8.90365 18.4444 8.97889 18.4283 9.05133 18.4149C9.36145 18.3565 9.68072 18.2911 10.0077 18.218C10.1371 18.1892 10.2637 18.1625 10.3952 18.1315C10.7328 18.052 11.0809 17.9627 11.4339 17.8685C11.6315 17.8158 11.8305 17.7616 12.033 17.7046C12.3509 17.6146 12.673 17.5204 13.0007 17.4198C13.2335 17.3481 13.4698 17.2729 13.7074 17.1955C13.9522 17.1167 14.199 17.0345 14.4472 16.9501C14.711 16.8608 14.9747 16.7693 15.2426 16.6737C15.5759 16.5549 15.9121 16.4318 16.2503 16.3038C16.4205 16.2391 16.5907 16.1751 16.7623 16.109C17.2089 15.936 17.6596 15.7553 18.1125 15.5682C18.2271 15.5204 18.3418 15.4719 18.4564 15.4234C18.9606 15.211 19.4669 14.993 19.9754 14.7644C20.3143 14.6118 20.6624 14.4494 21.0148 14.282C21.2468 14.1723 21.4761 14.0619 21.7053 13.9508L21.7096 13.9522L21.9824 13.8186C22.0977 13.7616 22.2103 13.7039 22.3249 13.6463C22.4873 13.5654 22.6491 13.4845 22.8094 13.403C23.0802 13.2644 23.3467 13.1259 23.6118 12.9859C23.7243 12.9262 23.8389 12.8678 23.9508 12.808C24.3347 12.602 24.7117 12.3952 25.0802 12.1864C25.109 12.1702 25.1364 12.1533 25.166 12.1371C25.5028 11.9459 25.8326 11.7532 26.1547 11.5605C26.2532 11.5021 26.3481 11.443 26.4451 11.384C26.6955 11.2321 26.9409 11.0802 27.1814 10.9283C27.2897 10.8594 27.3973 10.7911 27.5035 10.7222C27.7342 10.5738 27.9578 10.4255 28.1779 10.2764C28.2728 10.2124 28.3699 10.1484 28.4627 10.0844C28.7651 9.87623 29.0598 9.66878 29.3404 9.46273L30.1498 8.86639L30.1181 8.84529C31.2159 7.97539 32.1231 7.1083 32.7004 6.28903C32.7025 6.29677 32.706 6.3038 32.7081 6.31153C32.7229 6.36006 32.7342 6.40999 32.7482 6.45851C32.8207 6.70957 32.8889 6.96132 32.948 7.21449C32.9719 7.31716 32.9916 7.42124 33.0134 7.52391C33.0562 7.72504 33.097 7.92546 33.1315 8.12729C33.1519 8.24473 33.1681 8.36357 33.1849 8.48172C33.2124 8.67159 33.2377 8.86146 33.2581 9.05204C33.2714 9.1744 33.2827 9.29677 33.2925 9.41913C33.308 9.6076 33.32 9.79606 33.3284 9.98523C33.334 10.1069 33.3397 10.2286 33.3425 10.3502C33.3467 10.5443 33.3453 10.7384 33.3425 10.9325C33.3404 11.0478 33.3404 11.1624 33.3361 11.2771C33.3277 11.4937 33.3122 11.7096 33.2946 11.9248C33.2869 12.0155 33.2834 12.1069 33.2743 12.1976C33.244 12.5042 33.2053 12.8101 33.1561 13.1146C33.1512 13.1456 33.1435 13.1765 33.1385 13.2075C33.0928 13.4796 33.0408 13.7518 32.9803 14.0211C32.9578 14.121 32.9311 14.2194 32.9065 14.3193C32.8572 14.5197 32.8073 14.7194 32.7496 14.9184C32.7166 15.0331 32.68 15.1463 32.6442 15.2602C32.5872 15.4423 32.5281 15.6238 32.4641 15.8038C32.4226 15.9212 32.3783 16.0387 32.3333 16.1554C32.2658 16.3312 32.1955 16.5056 32.1216 16.6786C32.0724 16.7933 32.0232 16.9079 31.9719 17.0218C31.9212 17.1329 31.8657 17.2419 31.8129 17.3516C31.6568 17.6737 31.4901 17.9873 31.315 18.2933C31.2911 18.3347 31.2686 18.3762 31.2447 18.4177C31.2335 18.4367 31.2229 18.4564 31.2117 18.4754C31.0084 18.82 30.7961 19.1554 30.571 19.4754C28.5654 20.3685 25.0612 21.0204 21.0323 21.2904ZM4.87411 3.78692C6.91068 6.68073 12.9669 10.1786 17.5984 12.2651C18.3629 12.6097 19.1329 12.9332 19.9022 13.2454C19.7314 13.3242 19.5703 13.403 19.3959 13.4817C18.9079 13.7018 18.4233 13.9107 17.9402 14.1146C17.8326 14.1596 17.725 14.2061 17.6174 14.2504C17.1695 14.4367 16.7243 14.6153 16.2827 14.7869C16.1526 14.8376 16.0232 14.8868 15.8945 14.936C15.4937 15.0886 15.0956 15.2363 14.7032 15.3762C14.5872 15.4177 14.4719 15.4578 14.3572 15.4979C13.9747 15.6315 13.597 15.7574 13.2243 15.8776C13.1104 15.9142 12.9951 15.9522 12.8826 15.988C12.4585 16.121 12.0422 16.2461 11.6343 16.3608C11.5612 16.3812 11.4894 16.4008 11.417 16.4212C10.0253 16.8052 8.73839 17.0795 7.61251 17.2229C7.39029 17.1406 7.18565 17.0591 7.0028 16.9775C6.72151 16.5781 6.46131 16.1561 6.21588 15.7208C6.18846 15.673 6.16033 15.6252 6.13361 15.576C5.88888 15.1301 5.66033 14.6695 5.45639 14.1927L5.44444 14.1653C4.05484 10.8924 3.83895 7.20886 4.87411 3.78692ZM4.23768 16.8706C4.21799 16.8263 4.21518 16.7651 4.2201 16.6962C4.22221 16.6688 4.23206 16.6336 4.23768 16.602C4.24753 16.552 4.25878 16.5014 4.27847 16.4444C4.33895 16.2672 4.44725 16.0471 4.64064 15.77C4.64837 15.7848 4.65752 15.7989 4.66525 15.8144C4.83192 16.1392 5.00984 16.4592 5.19901 16.7743C5.23065 16.8242 5.25878 16.8776 5.29043 16.929C5.3706 17.0598 5.45709 17.1871 5.54148 17.3165C4.7194 17.256 4.32278 17.0527 4.23909 16.8734L4.23768 16.8706ZM31.7454 4.17159C31.7757 4.18776 31.8052 4.20394 31.8347 4.22433C31.8481 4.23418 31.8586 4.24402 31.8706 4.25387C31.9114 4.28762 31.9494 4.3249 31.9712 4.3692C31.9719 4.37131 31.974 4.37342 31.9754 4.37483C32.199 4.88748 31.1793 6.2609 28.8769 8.03094C28.6399 7.87764 28.3987 7.72504 28.1526 7.57243C28.0745 7.52391 27.9958 7.47609 27.917 7.42757C27.0766 6.91421 26.1863 6.40577 25.2553 5.90717C25.251 5.90506 25.2461 5.90225 25.2419 5.90014C24.7532 5.63854 24.2546 5.38045 23.7461 5.12588C26.3474 4.33474 28.5865 3.90577 30.1617 3.90577C30.9761 3.90647 31.4768 4.02602 31.7454 4.17159ZM2.87692 17.2328C2.89802 17.3059 2.92474 17.3776 2.95639 17.448L2.9585 17.4536L2.99366 17.5316C3.17017 17.9234 3.36427 18.3059 3.57172 18.6828C3.63923 18.8052 3.71518 18.9234 3.7855 19.0443C3.93178 19.2947 4.07946 19.5443 4.23909 19.7869C4.26511 19.827 4.28691 19.8692 4.31363 19.9086C4.24964 19.8875 4.18846 19.8671 4.12728 19.8467C3.99929 19.8038 3.87692 19.7609 3.7623 19.718C3.68283 19.6885 3.59915 19.6589 3.52531 19.6294C3.36778 19.5661 3.22362 19.5042 3.09001 19.443C3.02531 19.4135 2.96483 19.3847 2.90505 19.3551C2.79957 19.3031 2.70041 19.2525 2.6111 19.2018C2.56117 19.1737 2.51335 19.1463 2.46835 19.1189C2.38536 19.0689 2.30941 19.0197 2.2412 18.9726C2.21026 18.9508 2.17861 18.929 2.15048 18.9079C2.07524 18.8516 2.00702 18.7968 1.95076 18.7447C1.93389 18.7293 1.92053 18.7145 1.90505 18.6997C1.86075 18.6554 1.82137 18.6132 1.78972 18.5738C1.78128 18.5633 1.77074 18.552 1.7637 18.5415C1.72995 18.4951 1.70534 18.4529 1.68775 18.4149C1.68354 18.4058 1.68072 18.3973 1.67721 18.3882C1.66314 18.3509 1.654 18.3165 1.654 18.289C1.6533 18.0956 1.93459 17.6962 2.87692 17.2328Z" fill="#CFCFCF" stroke="#CFCFCF" stroke-width="0.00256005"/>
</g>
<defs>
<clipPath id="clip0_78_136">
<rect width="35" height="35" fill="white"/>
</clipPath>
</defs>
</svg>
